<svg width="24" height="24" viewBox="0 0 24 24" fill="none" xmlns="http://www.w3.org/2000/svg">
<path d="M21.0754 14.1749L9.82539 2.92489C7.95039 0.974894 4.87539 0.974894 2.92539 2.84989C0.975391 4.72489 0.975391 7.87489 2.92539 9.74989L3.00039 9.82489L5.10039 11.9999L6.15039 10.9499L3.97539 8.77489C2.70039 7.49989 2.70039 5.32489 3.97539 4.04989C5.25039 2.77489 7.42539 2.69989 8.70039 3.97489C8.70039 3.97489 8.70039 3.97489 8.77539 4.04989L19.9504 15.2249C21.3004 16.4999 21.3004 18.6749 20.0254 19.9499C18.7504 21.2999 16.5754 21.2999 15.3004 20.0249C15.3004 20.0249 15.3004 20.0249 15.2254 19.9499L9.67539 14.3999C8.92539 13.6499 9.00039 12.4499 9.67539 11.7749C10.4254 11.0999 11.5504 11.0999 12.3004 11.7749L15.3754 14.8499L16.4254 13.7999L13.2754 10.6499C11.9254 9.37489 9.82539 9.44989 8.55039 10.7999C7.35039 12.0749 7.35039 14.0999 8.55039 15.4499L14.1754 21.0749C16.0504 23.0249 19.1254 23.0249 21.0754 21.1499C23.0254 19.2749 23.0254 16.1249 21.0754 14.1749C21.0754 14.2499 21.0754 14.1749 21.0754 14.1749Z" fill="white"/>
</svg>
