<svg width="124" height="88" viewBox="0 0 124 88" fill="none" xmlns="http://www.w3.org/2000/svg">
<path d="M3.038 11.192H7.378L5.222 6.236L3.038 11.192ZM2.632 12.172L1.358 15H0.042L4.536 5.2H5.922L10.402 15H9.086L7.784 12.172H2.632ZM13.2453 6.18V9.736H17.0953C17.926 9.736 18.556 9.568 18.9853 9.232C19.396 8.91467 19.6013 8.462 19.6013 7.874C19.6013 7.202 19.3586 6.73067 18.8733 6.46C18.5373 6.27333 17.856 6.18 16.8293 6.18H13.2453ZM12.0133 15V5.2H17.0253C17.4546 5.2 17.786 5.20467 18.0193 5.214C18.2526 5.22333 18.584 5.27933 19.0133 5.382C19.4426 5.47533 19.7833 5.62467 20.0353 5.83C20.6046 6.278 20.8893 6.92667 20.8893 7.776C20.8893 8.48533 20.6886 9.05467 20.2873 9.484C20.1193 9.652 19.9186 9.79667 19.6853 9.918C19.4613 10.0393 19.2746 10.1187 19.1253 10.156C18.9853 10.1933 18.8873 10.212 18.8313 10.212V10.254C19.3353 10.338 19.7273 10.534 20.0073 10.842C20.0726 10.9073 20.1286 10.9773 20.1753 11.052C20.222 11.1173 20.2593 11.192 20.2873 11.276C20.3246 11.36 20.3526 11.4253 20.3713 11.472C20.39 11.5187 20.4086 11.598 20.4273 11.71C20.446 11.822 20.4553 11.892 20.4553 11.92C20.4646 11.9387 20.474 12.0133 20.4833 12.144L20.4973 12.326L20.5673 13.656C20.5673 13.6747 20.572 13.726 20.5813 13.81C20.5906 13.8847 20.5953 13.936 20.5953 13.964C20.5953 13.9827 20.6 14.0293 20.6093 14.104C20.6186 14.1693 20.628 14.216 20.6373 14.244C20.6466 14.272 20.656 14.3187 20.6653 14.384C20.684 14.44 20.7026 14.4913 20.7213 14.538C20.74 14.5753 20.7586 14.622 20.7773 14.678C20.8053 14.734 20.838 14.79 20.8753 14.846C20.9126 14.8927 20.95 14.944 20.9873 15H19.6433C19.4566 14.692 19.34 14.258 19.2933 13.698L19.2373 12.55C19.2373 11.9433 19.088 11.4907 18.7893 11.192C18.472 10.8747 17.884 10.716 17.0253 10.716H13.2453V15H12.0133ZM32.0589 11.822H33.3189C33.2722 12.69 32.9362 13.46 32.3109 14.132C31.8816 14.58 31.3776 14.8833 30.7989 15.042C30.2296 15.21 29.4502 15.294 28.4609 15.294C27.6489 15.294 26.9069 15.2053 26.2349 15.028C25.5722 14.86 24.9842 14.51 24.4709 13.978C23.5656 13.0727 23.1129 11.7847 23.1129 10.114C23.1129 8.56467 23.5562 7.314 24.4429 6.362C25.3482 5.39133 26.6782 4.906 28.4329 4.906C29.9636 4.906 31.1256 5.172 31.9189 5.704C32.7589 6.292 33.2069 7.09933 33.2629 8.126H32.0029C31.9469 7.40733 31.6202 6.852 31.0229 6.46C30.4442 6.07733 29.5949 5.886 28.4749 5.886C27.2056 5.886 26.2069 6.28267 25.4789 7.076C24.7789 7.84133 24.4289 8.87267 24.4289 10.17C24.4289 11.486 24.7556 12.4987 25.4089 13.208C25.8289 13.6653 26.2909 13.964 26.7949 14.104C27.2989 14.244 27.8962 14.314 28.5869 14.314C29.6602 14.314 30.4769 14.118 31.0369 13.726C31.6622 13.2873 32.0029 12.6527 32.0589 11.822ZM36.8151 10.324V15H35.5831V5.2H36.8151V9.316H43.1711V5.2H44.4031V15H43.1711V10.324H36.8151ZM47.2654 5.2H48.4974V15H47.2654V5.2ZM53.9219 6.208H50.1559V5.2H58.9339V6.208H55.1539V15L53.9219 14.986V6.208ZM61.8133 9.47H67.9313V10.478H61.8133V13.992H68.7853V15H60.5813V5.2H68.5893V6.208H61.8133V9.47ZM78.9999 11.822H80.2599C80.2133 12.69 79.8773 13.46 79.2519 14.132C78.8226 14.58 78.3186 14.8833 77.7399 15.042C77.1706 15.21 76.3913 15.294 75.4019 15.294C74.5899 15.294 73.8479 15.2053 73.1759 15.028C72.5133 14.86 71.9253 14.51 71.4119 13.978C70.5066 13.0727 70.0539 11.7847 70.0539 10.114C70.0539 8.56467 70.4973 7.314 71.3839 6.362C72.2893 5.39133 73.6193 4.906 75.3739 4.906C76.9046 4.906 78.0666 5.172 78.8599 5.704C79.6999 6.292 80.1479 7.09933 80.2039 8.126H78.9439C78.8879 7.40733 78.5613 6.852 77.9639 6.46C77.3853 6.07733 76.5359 5.886 75.4159 5.886C74.1466 5.886 73.1479 6.28267 72.4199 7.076C71.7199 7.84133 71.3699 8.87267 71.3699 10.17C71.3699 11.486 71.6966 12.4987 72.3499 13.208C72.7699 13.6653 73.2319 13.964 73.7359 14.104C74.2399 14.244 74.8373 14.314 75.5279 14.314C76.6013 14.314 77.4179 14.118 77.9779 13.726C78.6033 13.2873 78.9439 12.6527 78.9999 11.822ZM84.4845 6.208H80.7185V5.2H89.4965V6.208H85.7165V15L84.4845 14.986V6.208ZM99.7819 5.2V11.164C99.7819 12.4893 99.4646 13.4787 98.8299 14.132C98.1393 14.8507 96.9866 15.21 95.3719 15.21C93.7759 15.21 92.6186 14.846 91.8999 14.118C91.2746 13.4647 90.9619 12.48 90.9619 11.164V5.2H92.1939V11.024C92.1939 12.1533 92.4273 12.9653 92.8939 13.46C93.4073 13.9733 94.2333 14.23 95.3719 14.23C96.5293 14.23 97.3553 13.9687 97.8499 13.446C98.0553 13.2407 98.2139 12.984 98.3259 12.676C98.4379 12.368 98.5033 12.102 98.5219 11.878C98.5406 11.654 98.5499 11.3693 98.5499 11.024V5.2H99.7819ZM103.689 6.18V9.736H107.539C108.37 9.736 109 9.568 109.429 9.232C109.84 8.91467 110.045 8.462 110.045 7.874C110.045 7.202 109.802 6.73067 109.317 6.46C108.981 6.27333 108.3 6.18 107.273 6.18H103.689ZM102.457 15V5.2H107.469C107.898 5.2 108.23 5.20467 108.463 5.214C108.696 5.22333 109.028 5.27933 109.457 5.382C109.886 5.47533 110.227 5.62467 110.479 5.83C111.048 6.278 111.333 6.92667 111.333 7.776C111.333 8.48533 111.132 9.05467 110.731 9.484C110.563 9.652 110.362 9.79667 110.129 9.918C109.905 10.0393 109.718 10.1187 109.569 10.156C109.429 10.1933 109.331 10.212 109.275 10.212V10.254C109.779 10.338 110.171 10.534 110.451 10.842C110.516 10.9073 110.572 10.9773 110.619 11.052C110.666 11.1173 110.703 11.192 110.731 11.276C110.768 11.36 110.796 11.4253 110.815 11.472C110.834 11.5187 110.852 11.598 110.871 11.71C110.89 11.822 110.899 11.892 110.899 11.92C110.908 11.9387 110.918 12.0133 110.927 12.144L110.941 12.326L111.011 13.656C111.011 13.6747 111.016 13.726 111.025 13.81C111.034 13.8847 111.039 13.936 111.039 13.964C111.039 13.9827 111.044 14.0293 111.053 14.104C111.062 14.1693 111.072 14.216 111.081 14.244C111.09 14.272 111.1 14.3187 111.109 14.384C111.128 14.44 111.146 14.4913 111.165 14.538C111.184 14.5753 111.202 14.622 111.221 14.678C111.249 14.734 111.282 14.79 111.319 14.846C111.356 14.8927 111.394 14.944 111.431 15H110.087C109.9 14.692 109.784 14.258 109.737 13.698L109.681 12.55C109.681 11.9433 109.532 11.4907 109.233 11.192C108.916 10.8747 108.328 10.716 107.469 10.716H103.689V15H102.457ZM115.153 9.47H121.271V10.478H115.153V13.992H122.125V15H113.921V5.2H121.929V6.208H115.153V9.47Z" fill="white"/>
<path d="M21.658 45.92V50H2.89V26.2H8.16V45.92H21.658ZM26.0392 26.2H31.3092V50H26.0392V26.2ZM51.9539 37.42H63.7179V50H59.8759V46.294H59.7399C58.8105 47.7673 57.6885 48.8553 56.3739 49.558C54.9912 50.306 52.8832 50.68 50.0499 50.68C45.6979 50.68 42.5132 49.5693 40.4959 47.348C38.4559 45.104 37.4359 42.0667 37.4359 38.236C37.4359 34.1333 38.6939 30.9373 41.2099 28.648C43.4992 26.5173 46.7405 25.452 50.9339 25.452C54.7872 25.452 57.7679 26.1547 59.8759 27.56C62.0292 29.0107 63.1852 31.062 63.3439 33.714H57.8699C57.6659 32.2633 57.0085 31.1753 55.8979 30.45C54.9005 29.7927 53.3819 29.464 51.3419 29.464C48.6899 29.464 46.6725 30.1553 45.2899 31.538C43.7939 33.0793 43.0459 35.2553 43.0459 38.066C43.0459 40.9447 43.7825 43.1207 45.2559 44.594C46.5932 45.9767 48.5312 46.668 51.0699 46.668C53.4725 46.668 55.3199 46.0447 56.6119 44.798C57.7225 43.6873 58.3459 42.3387 58.4819 40.752H51.9539V37.42ZM75.5491 39.46V50H70.2791V26.2H75.5491V35.448H88.0951V26.2H93.3651V50H88.0951V39.46H75.5491ZM106.953 30.28H98.3846V26.2H120.757V30.28H112.223V50H106.953V30.28Z" fill="white"/>
<path d="M6.734 74.304V78.62H11.83C13.026 78.62 13.754 78.49 14.014 78.23C14.6207 77.8313 14.924 77.242 14.924 76.462C14.924 75.63 14.6207 75.0407 14.014 74.694C13.546 74.434 12.792 74.304 11.752 74.304H6.734ZM6.734 67.18V71.028H11.024C12.3067 71.028 13.1647 70.846 13.598 70.482C13.9967 70.1527 14.196 69.6673 14.196 69.026C14.196 68.4193 13.9533 67.934 13.468 67.57C13.104 67.31 12.376 67.18 11.284 67.18H6.734ZM1.95 63.8H12.454C14.794 63.8 16.4233 64.112 17.342 64.736C18.5207 65.5507 19.11 66.7727 19.11 68.402C19.11 69.6153 18.746 70.5687 18.018 71.262C17.7233 71.522 17.3767 71.7473 16.978 71.938C16.5793 72.1287 16.2587 72.25 16.016 72.302C15.7733 72.354 15.6087 72.38 15.522 72.38V72.484C16.9953 72.6227 18.1393 73.0993 18.954 73.914C19.6993 74.6593 20.072 75.6907 20.072 77.008C20.072 78.5507 19.6213 79.738 18.72 80.57C17.68 81.5233 15.652 82 12.636 82H1.95V63.8ZM40.6963 63.8V74.85C40.6963 77.2767 40.081 79.1053 38.8503 80.336C37.9663 81.22 36.935 81.792 35.7563 82.052C34.595 82.3293 33.2256 82.468 31.6483 82.468C30.071 82.468 28.693 82.3293 27.5143 82.052C26.353 81.792 25.3303 81.22 24.4463 80.336C23.2156 79.1053 22.6003 77.2767 22.6003 74.85V63.8H27.3843V74.356C27.3843 75.916 27.7223 77.034 28.3983 77.71C29.0223 78.386 30.1056 78.724 31.6483 78.724C33.139 78.724 34.2223 78.386 34.8983 77.71C35.5743 77.034 35.9123 75.916 35.9123 74.356V63.8H40.6963ZM48.7311 67.44V71.886H53.8011C54.9971 71.886 55.8378 71.6433 56.3231 71.158C56.7218 70.7593 56.9211 70.2393 56.9211 69.598C56.9211 68.818 56.6264 68.2287 56.0371 67.83C55.6211 67.57 54.8584 67.44 53.7491 67.44H48.7311ZM43.9471 82V63.8H54.7111C57.5538 63.8 59.5211 64.346 60.6131 65.438C61.4451 66.27 61.8611 67.4227 61.8611 68.896C61.8611 70.248 61.4624 71.3227 60.6651 72.12C60.0584 72.7267 59.2784 73.1513 58.3251 73.394V73.498C59.2264 73.654 59.9371 74.018 60.4571 74.59C60.5611 74.694 60.6564 74.8067 60.7431 74.928C60.8298 75.0493 60.8991 75.162 60.9511 75.266C61.0031 75.37 61.0464 75.4913 61.0811 75.63C61.1331 75.7687 61.1678 75.8813 61.1851 75.968C61.2198 76.0373 61.2458 76.15 61.2631 76.306C61.2978 76.462 61.3151 76.5747 61.3151 76.644C61.3151 76.7133 61.3238 76.8347 61.3411 77.008C61.3584 77.1813 61.3671 77.294 61.3671 77.346L61.4971 79.4C61.5838 80.4747 61.8351 81.3413 62.2511 82H57.1811C56.9904 81.74 56.8431 81.48 56.7391 81.22C56.6524 80.9427 56.5918 80.726 56.5571 80.57C56.5398 80.3967 56.5138 80.102 56.4791 79.686L56.4011 78.178C56.3318 77.138 56.0458 76.4013 55.5431 75.968C55.0404 75.5347 54.2604 75.318 53.2031 75.318H48.7311V82H43.9471ZM69.5646 71.028H79.5486V74.46H69.5646V78.36H81.6546V82H64.7806V63.8H81.3686V67.44H69.5646V71.028ZM89.2738 75.188H94.8378L92.0298 68.376L89.2738 75.188ZM88.1038 78.308L86.5178 82H81.5258L89.6898 63.8H94.3958L102.56 82H97.5678L95.9818 78.308H88.1038ZM121.593 63.8V74.85C121.593 77.2767 120.978 79.1053 119.747 80.336C118.863 81.22 117.832 81.792 116.653 82.052C115.492 82.3293 114.122 82.468 112.545 82.468C110.968 82.468 109.59 82.3293 108.411 82.052C107.25 81.792 106.227 81.22 105.343 80.336C104.112 79.1053 103.497 77.2767 103.497 74.85V63.8H108.281V74.356C108.281 75.916 108.619 77.034 109.295 77.71C109.919 78.386 111.002 78.724 112.545 78.724C114.036 78.724 115.119 78.386 115.795 77.71C116.471 77.034 116.809 75.916 116.809 74.356V63.8H121.593Z" fill="white"/>
</svg>
